<?xml version="1.0" encoding="UTF-8"?>
<svg xmlns="http://www.w3.org/2000/svg" id="Layer_1" data-name="Layer 1" viewBox="0 0 24 24">
  <path d="m23.707,23.707c-.195.195-.451.293-.707.293s-.512-.098-.707-.293L.293,1.707C-.098,1.316-.098.684.293.293S1.316-.098,1.707.293l11.293,11.293v-7.086c0-2.481,2.019-4.5,4.5-4.5h2.5c.553,0,1,.447,1,1s-.447,1-1,1h-2.5c-1.379,0-2.5,1.121-2.5,2.5v9.086l8.707,8.707c.391.391.391,1.023,0,1.414Zm-9.597-5.183c-.544-.122-1.075.216-1.197.754-.357,1.577-1.793,2.722-3.413,2.722-1.93,0-3.5-1.57-3.5-3.5,0-1.62,1.145-3.056,2.722-3.413.538-.123.876-.658.754-1.197-.123-.538-.655-.876-1.197-.754-2.519.572-4.278,2.778-4.278,5.364,0,3.032,2.468,5.5,5.5,5.5,2.586,0,4.792-1.76,5.364-4.278.122-.539-.216-1.074-.754-1.197Z"/>
</svg>
