<?xml version="1.0" encoding="UTF-8"?>
<svg xmlns="http://www.w3.org/2000/svg" id="Layer_1" data-name="Layer 1" viewBox="0 0 24 24">
  <path d="m24,6c0-2.757-2.243-5-5-5h-6c-2.757,0-5,2.243-5,5v.586L1.707.293C1.316-.098.684-.098.293.293S-.098,1.316.293,1.707l22,22c.195.195.451.293.707.293s.512-.098.707-.293c.391-.391.391-1.023,0-1.414l-.97-.97c.81-.909,1.263-2.082,1.263-3.323V6Zm-14,0c0-1.654,1.346-3,3-3h6c1.654,0,3,1.346,3,3v8.003c-.836-.629-1.875-1.003-3-1.003-1.242,0-2.415.453-3.323,1.263l-5.677-5.677v-2.586Zm7.096,9.682c.532-.438,1.2-.682,1.904-.682,1.654,0,3,1.346,3,3,0,.704-.243,1.372-.682,1.904l-4.223-4.223Zm-8.096-2.682c-.553,0-1,.448-1,1v.003c-.836-.629-1.875-1.003-3-1.003-2.757,0-5,2.243-5,5s2.243,5,5,5,5-2.243,5-5v-4c0-.552-.447-1-1-1Zm-4,8c-1.654,0-3-1.346-3-3s1.346-3,3-3,3,1.346,3,3-1.346,3-3,3Z"/>
</svg>
