<svg fill="grey" height="24" viewBox="0 -960 960 960" width="24" xmlns="http://www.w3.org/2000/svg">
  <defs></defs>
  <path d="M 355.117 -603.341 C 369.322 -617.546 387.617 -624.289 410.001 -623.571 C 432.385 -622.853 448.808 -614.776 459.27 -599.341 L 620.601 -365.658 C 626.329 -357.037 625.68 -349.214 618.654 -342.188 C 611.628 -335.163 603.799 -334.507 595.165 -340.222 L 361.117 -501.188 C 345.425 -511.649 336.95 -527.739 335.694 -549.457 C 334.438 -571.174 340.912 -589.136 355.117 -603.341 Z M 415.27 -465.188 Z" style="transform-box: fill-box; transform-origin: 50% 50%;" transform="matrix(-0.70582, -0.708392, 0.708392, -0.70582, -0.000027, -0.000031)"></path>
  <path d="M 204.001 -771.548 C 193.334 -771.548 181.136 -769.517 171.675 -764.388 C 162.213 -759.26 154.585 -751.978 148.791 -742.543 C 133.509 -715.876 121.201 -686.8 111.868 -655.313 C 102.534 -623.826 97.868 -589.415 97.868 -552.082 C 97.868 -499.826 107.781 -450.702 127.607 -404.711 C 147.433 -358.72 174.497 -318.438 208.799 -283.865 C 243.101 -249.292 283.431 -222.019 329.791 -202.045 C 376.149 -182.07 401.33 -190.007 409.401 -197.199 C 417.381 -206.621 419.432 -214.493 415.501 -220.899 C 411.586 -229.364 403.112 -234.3 390.087 -236.736 C 377.061 -239.172 313.7 -263.249 251.367 -325.582 C 189.033 -387.915 157.867 -463.415 157.867 -552.082 C 157.867 -580.082 161.7 -607.749 169.367 -635.082 C 177.033 -662.415 187.867 -688.082 204.001 -711.549 L 758.134 -711.017 C 772.134 -687.017 782.968 -661.35 790.634 -634.017 C 798.301 -606.684 802.134 -579.017 802.134 -551.017 C 802.134 -462.35 770.968 -386.85 708.634 -324.517 C 646.301 -262.184 582.94 -238.107 569.901 -236.699 C 556.889 -233.235 548.415 -228.299 544.492 -220.864 C 540.569 -213.428 542.62 -205.556 550.645 -197.249 C 558.671 -188.942 583.852 -181.005 630.201 -201.999 C 676.57 -220.954 716.9 -248.227 751.202 -282.8 C 785.504 -317.373 812.568 -357.655 832.394 -403.646 C 852.22 -449.637 862.133 -498.761 862.133 -551.017 C 862.133 -588.35 857.467 -622.761 848.133 -654.248 C 838.8 -685.735 826.492 -714.811 811.21 -741.478 C 805.416 -750.913 797.788 -758.195 788.326 -763.323 C 778.865 -768.452 768.801 -771.016 758.134 -771.016 L 204.001 -771.548 Z M 482.174 -467.775 Z M 477.827 -466.71 Z" style="transform-box: fill-box; transform-origin: 50% 50%;" transform="matrix(-1, 0, 0, -1, 0.000031, -0.000009)"></path>
</svg>