<svg fill="grey" height="24" viewBox="0 -960 960 960" width="24" xmlns="http://www.w3.org/2000/svg">
  <defs></defs>
  <path d="M 424.154 -613.846 C 438.359 -628.051 456.654 -634.794 479.038 -634.076 C 501.422 -633.358 517.845 -625.281 528.307 -609.846 L 689.638 -376.163 C 695.366 -367.542 694.717 -359.719 687.691 -352.693 C 680.665 -345.668 672.836 -345.012 664.202 -350.727 L 430.154 -511.693 C 414.462 -522.154 405.987 -538.244 404.731 -559.962 C 403.475 -581.679 409.949 -599.641 424.154 -613.846 Z M 480 -180.001 C 506.308 -180.001 531.449 -182.386 555.423 -187.155 C 579.397 -191.924 602.769 -199.284 625.539 -209.233 C 633.641 -212.464 641.705 -218.233 649.731 -226.54 C 657.756 -234.847 659.807 -242.719 655.884 -250.155 C 651.961 -257.59 643.487 -262.526 630.462 -264.962 C 617.436 -267.398 606.667 -267.001 598.155 -263.77 C 579.437 -255.719 560.36 -249.744 540.924 -245.846 C 521.488 -241.949 501.18 -240 480 -240 C 391.333 -240 315.833 -271.167 253.5 -333.5 C 191.166 -395.833 160 -471.333 160 -560 C 160 -588 163.833 -615.667 171.5 -643 C 179.166 -670.333 190 -696 204 -720 L 756 -720 C 771.333 -694.667 782.5 -668.333 789.5 -641 C 796.5 -613.667 800 -585.333 800 -556 C 800 -537.128 798.115 -517.756 794.346 -497.884 C 790.576 -478.012 784.666 -458.922 776.615 -440.614 C 773.384 -432.101 772.717 -423.794 774.615 -415.692 C 776.512 -407.589 780.997 -400.879 788.07 -395.56 C 794.638 -390.725 801.806 -389.385 809.576 -391.539 C 817.344 -393.692 822.844 -398.41 826.075 -405.692 C 837.613 -430.821 846.049 -455.552 851.383 -479.885 C 856.716 -504.218 859.588 -529.18 859.999 -554.769 C 860.409 -590.974 856.332 -625.192 847.768 -657.423 C 839.204 -689.654 826.306 -721.179 809.076 -751.999 C 803.794 -760.666 796.358 -767.499 786.769 -772.499 C 777.179 -777.499 766.922 -779.999 756 -779.999 L 204 -779.999 C 193.333 -779.999 183.269 -777.435 173.808 -772.306 C 164.346 -767.178 156.718 -759.896 150.924 -750.461 C 135.642 -723.794 123.334 -694.718 114.001 -663.231 C 104.667 -631.744 100.001 -597.333 100.001 -560 C 100.001 -507.744 109.914 -458.62 129.74 -412.629 C 149.566 -366.638 176.63 -326.356 210.932 -291.783 C 245.234 -257.21 285.564 -229.937 331.924 -209.963 C 378.282 -189.988 427.641 -180.001 480 -180.001 Z M 484.307 -475.693 Z" style="transform-box: fill-box; transform-origin: 50% 50%;" transform="matrix(-1, 0, 0, -1, -0.000029, 0.000017)"></path>
</svg>