<?xml version="1.0" encoding="UTF-8"?>
<svg xmlns="http://www.w3.org/2000/svg" id="Layer_1" data-name="Layer 1" viewBox="0 0 24 24" width="512" height="512"><path d="m14.004,23.814c-.061,0-.121-.005-.181-.017-2.999-.551-5.752-2.299-7.554-4.794h-1.271C2.241,19.003-.002,16.76-.002,14.003v-4.005C-.002,7.241,2.241,4.998,4.998,4.998h1.271C8.068,2.505,10.821.758,13.822.204c.294-.052.594.025.821.215.229.19.36.472.36.769v21.627c0,.297-.132.579-.36.769-.181.151-.407.231-.64.231ZM4.998,6.998c-1.654,0-3,1.346-3,3v4.005c0,1.654,1.346,3,3,3h1.782c.321,0,.622.154.811.414l.3.415c1.263,1.749,3.083,3.057,5.113,3.703V2.467c-2.032.647-3.854,1.956-5.114,3.702l-.298.414c-.188.261-.49.415-.812.415h-1.782Z"/></svg>
